<?xml version="1.0" encoding="UTF-8" standalone="no"?>
<svg
   xmlns:dc="http://purl.org/dc/elements/1.1/"
   xmlns:cc="http://creativecommons.org/ns#"
   xmlns:rdf="http://www.w3.org/1999/02/22-rdf-syntax-ns#"
   xmlns:svg="http://www.w3.org/2000/svg"
   xmlns="http://www.w3.org/2000/svg"
   xmlns:sodipodi="http://sodipodi.sourceforge.net/DTD/sodipodi-0.dtd"
   xmlns:inkscape="http://www.inkscape.org/namespaces/inkscape"
   height="11"
   version="1.1"
   width="9"
   id="svg2106"
   sodipodi:docname="cofee.png.svg"
   inkscape:version="1.0.2 (e86c870879, 2021-01-15, custom)">
  <metadata
     id="metadata2110">
    <rdf:RDF>
      <cc:Work
         rdf:about="">
        <dc:format>image/svg+xml</dc:format>
        <dc:type
           rdf:resource="http://purl.org/dc/dcmitype/StillImage" />
      </cc:Work>
    </rdf:RDF>
  </metadata>
  <sodipodi:namedview
     pagecolor="#ffffff"
     bordercolor="#666666"
     borderopacity="1"
     objecttolerance="10"
     gridtolerance="10"
     guidetolerance="10"
     inkscape:pageopacity="0"
     inkscape:pageshadow="2"
     inkscape:window-width="1916"
     inkscape:window-height="1041"
     id="namedview2108"
     showgrid="false"
     inkscape:zoom="17.813333"
     inkscape:cx="10.75551"
     inkscape:cy="6.8233843"
     inkscape:window-x="0"
     inkscape:window-y="18"
     inkscape:window-maximized="0"
     inkscape:current-layer="svg2106" />
  <defs
     id="defs2082" />
  <path
     id="polygon2086"
     style="fill:#ffffff;fill-opacity:1"
     d="M 1,0 V 1 H 0 V 2 3 H 1 V 4 H 0 V 5 6 7 8 H 1 V 9 H 2 3 4 5 6 V 8 H 7 V 7 H 8 V 6 H 7 V 5 4 H 8 V 3 H 7 V 2 1 H 6 V 0 H 5 4 3 2 Z M 8,4 V 5 6 H 9 V 5 4 Z" />
  <polygon
     fill="#dbdbdb"
     points="1,4 2,4 3,4 4,4 5,4 6,4 6,3 7,3 7,4 6,4 6,5 5,5 4,5 3,5 2,5 1,5 1,4 0,4 0,3 1,3 "
     stroke="none"
     id="polygon2088" />
  <polygon
     fill="#dbdbdb"
     points="1,9 2,9 3,9 4,9 5,9 6,9 6,8 7,8 7,9 6,9 6,10 5,10 4,10 3,10 2,10 1,10 1,9 0,9 0,8 1,8 "
     stroke="none"
     id="polygon2090" />
  <polygon
     fill="#000000"
     points="1,10 2,10 3,10 4,10 5,10 6,10 6,9 7,9 7,10 6,10 6,11 5,11 4,11 3,11 2,11 1,11 1,10 0,10 0,9 1,9 "
     stroke="none"
     id="polygon2092" />
  <polygon
     fill="#dbdbdb"
     points="3,1 4,1 5,1 6,1 6,2 5,2 4,2 3,2 2,2 1,2 1,1 2,1 "
     stroke="none"
     id="polygon2096" />
  <polygon
     fill="#432500"
     points="3,2 4,2 5,2 6,2 6,3 5,3 4,3 3,3 2,3 1,3 1,2 2,2 "
     stroke="none"
     id="polygon2098" />
  <polygon
     fill="#dbdbdb"
     points="9,7 8,7 8,6 9,6 "
     stroke="none"
     id="polygon2104" />
</svg>
