<?xml version="1.0" encoding="UTF-8" standalone="no"?>
<svg
   xmlns:dc="http://purl.org/dc/elements/1.1/"
   xmlns:cc="http://creativecommons.org/ns#"
   xmlns:rdf="http://www.w3.org/1999/02/22-rdf-syntax-ns#"
   xmlns:svg="http://www.w3.org/2000/svg"
   xmlns="http://www.w3.org/2000/svg"
   xmlns:sodipodi="http://sodipodi.sourceforge.net/DTD/sodipodi-0.dtd"
   xmlns:inkscape="http://www.inkscape.org/namespaces/inkscape"
   height="11"
   version="1.1"
   width="90"
   id="svg1153"
   sodipodi:docname="coffeetable.svg"
   inkscape:version="1.0.2 (e86c870879, 2021-01-15, custom)">
  <metadata
     id="metadata1157">
    <rdf:RDF>
      <cc:Work
         rdf:about="">
        <dc:format>image/svg+xml</dc:format>
        <dc:type
           rdf:resource="http://purl.org/dc/dcmitype/StillImage" />
      </cc:Work>
    </rdf:RDF>
  </metadata>
  <sodipodi:namedview
     pagecolor="#ffffff"
     bordercolor="#666666"
     borderopacity="1"
     objecttolerance="10"
     gridtolerance="10"
     guidetolerance="10"
     inkscape:pageopacity="0"
     inkscape:pageshadow="2"
     inkscape:window-width="1916"
     inkscape:window-height="1041"
     id="namedview1155"
     showgrid="false"
     inkscape:zoom="11.313709"
     inkscape:cx="35.621266"
     inkscape:cy="0.68475114"
     inkscape:window-x="0"
     inkscape:window-y="18"
     inkscape:window-maximized="1"
     inkscape:current-layer="svg1153" />
  <defs
     id="defs1043" />
  <polygon
     fill="#ffffff"
     points="1,0 2,0 3,0 4,0 5,0 6,0 6,1 7,1 7,2 7,3 8,3 8,4 9,4 9,5 9,6 8,6 8,7 7,7 7,8 6,8 6,9 5,9 4,9 3,9 2,9 1,9 1,8 0,8 0,7 0,6 0,5 0,4 1,4 1,3 0,3 0,2 0,1 1,1 "
     stroke="none"
     id="polygon1047" />
  <polygon
     fill="#dbdbdb"
     points="1,4 2,4 3,4 4,4 5,4 6,4 6,3 7,3 7,4 6,4 6,5 5,5 4,5 3,5 2,5 1,5 1,4 0,4 0,3 1,3 "
     stroke="none"
     id="polygon1049" />
  <polygon
     fill="#dbdbdb"
     points="1,9 2,9 3,9 4,9 5,9 6,9 6,8 7,8 7,9 6,9 6,10 5,10 4,10 3,10 2,10 1,10 1,9 0,9 0,8 1,8 "
     stroke="none"
     id="polygon1051" />
  <polygon
     fill="#000000"
     points="1,10 2,10 3,10 4,10 5,10 6,10 6,9 7,9 7,10 6,10 6,11 5,11 4,11 3,11 2,11 1,11 1,10 0,10 0,9 1,9 "
     stroke="none"
     id="polygon1053" />
  <polygon
     fill="#dbdbdb"
     points="3,1 4,1 5,1 6,1 6,2 5,2 4,2 3,2 2,2 1,2 1,1 2,1 "
     stroke="none"
     id="polygon1057" />
  <polygon
     fill="#432500"
     points="3,2 4,2 5,2 6,2 6,3 5,3 4,3 3,3 2,3 1,3 1,2 2,2 "
     stroke="none"
     id="polygon1059" />
  <polygon
     fill="#dbdbdb"
     points="9,7 8,7 8,6 9,6 "
     stroke="none"
     id="polygon1063" />
  <polygon
     fill="#ffffff"
     points="14,4 15,4 15,3 16,3 17,3 18,3 18,4 18,5 17,5 17,4 16,4 15,4 15,5 14,5 14,6 14,7 14,8 15,8 16,8 17,8 17,7 18,7 18,8 17,8 17,9 16,9 15,9 14,9 14,8 13,8 13,7 13,6 13,5 14,5 "
     stroke="none"
     id="polygon1065" />
  <polygon
     fill="#bababa"
     points="14,7 14,6 14,5 15,5 15,4 16,4 17,4 17,5 18,5 18,4 18,3 19,3 19,4 19,5 19,6 18,6 17,6 17,5 16,5 16,6 15,6 15,7 15,8 14,8 14,9 15,9 16,9 17,9 17,8 18,8 18,7 19,7 19,8 19,9 18,9 18,10 17,10 16,10 15,10 14,10 14,9 13,9 13,8 14,8 "
     stroke="none"
     id="polygon1067" />
  <path
     id="polygon1069"
     d="m 22,4 v 1 h -1 v 1 h -1 v 1 1 h 1 v 1 h 1 1 1 V 8 H 23 22 V 7 6 h 1 1 v 1 1 h 1 V 7 6 5 H 24 V 4 h -1 z"
     style="fill:#ffffff;fill-opacity:1" />
  <path
     id="polygon1071"
     d="m 24,4 v 1 h -1 -1 v 1 h 1 1 V 7 8 H 23 22 V 7 6 h -1 v 1 1 h -1 v 1 h 1 v 1 h 1 1 1 1 V 9 h 1 V 8 7 6 5 H 25 V 4 Z"
     style="fill:#bababa;fill-opacity:1" />
  <polygon
     fill="rgb(255,255,255)"
     points="23,8 24,8 24,7 24,6 24,5 25,5 25,6 25,7 25,8 24,8 24,9 23,9 22,9 21,9 21,8 22,8 "
     stroke="none"
     id="polygon1073"
     style="fill:#ffffff;fill-opacity:1" />
  <polygon
     fill="#ffffff"
     points="28,3 28,2 29,2 29,1 29,0 30,0 31,0 31,1 32,1 32,2 32,3 31,3 31,2 31,1 30,1 30,2 29,2 29,3 29,4 30,4 30,5 29,5 29,6 29,7 29,8 30,8 30,9 29,9 28,9 27,9 27,8 28,8 28,7 28,6 28,5 27,5 27,4 28,4 "
     stroke="none"
     id="polygon1077" />
  <polygon
     fill="#bababa"
     points="28,6 27,6 27,5 28,5 "
     stroke="none"
     id="polygon1079" />
  <path
     id="polygon1081"
     style="fill:#bababa;fill-opacity:1"
     d="m 31,0 v 1 h -1 v 1 h 1 v 1 1 h 1 1 V 3 2 1 H 32 V 0 Z m 0,4 h -1 v 1 h -1 v 1 1 1 h 1 V 7 6 h 1 V 5 Z m -1,4 v 1 h -1 -1 -1 v 1 h 1 1 1 1 V 9 8 Z M 30,4 V 3 2 h -1 v 1 1 z" />
  <polygon
     fill="#ffffff"
     points="32,2 32,3 31,3 31,2 31,1 32,1 "
     stroke="none"
     id="polygon1085" />
  <polygon
     fill="#ffffff"
     points="35,3 35,2 36,2 36,1 36,0 37,0 38,0 38,1 39,1 39,2 39,3 38,3 38,2 38,1 37,1 37,2 36,2 36,3 36,4 37,4 37,5 36,5 36,6 36,7 36,8 37,8 37,9 36,9 35,9 34,9 34,8 35,8 35,7 35,6 35,5 34,5 34,4 35,4 "
     stroke="none"
     id="polygon1087" />
  <polygon
     fill="#bababa"
     points="35,6 34,6 34,5 35,5 "
     stroke="none"
     id="polygon1089" />
  <path
     id="polygon1091"
     d="m 38,0 v 1 h -1 v 1 h 1 v 1 1 h 1 1 V 3 2 1 H 39 V 0 Z m 0,4 h -1 v 1 h -1 v 1 1 1 h 1 V 7 6 h 1 V 5 Z m -1,4 v 1 h -1 -1 -1 v 1 h 1 1 1 1 V 9 8 Z M 37,4 V 3 2 h -1 v 1 1 z"
     style="fill:#bababa;fill-opacity:1" />
  <polygon
     fill="#ffffff"
     points="39,2 39,3 38,3 38,2 38,1 39,1 "
     stroke="none"
     id="polygon1095" />
  <polygon
     fill="#ffffff"
     points="42,5 43,5 43,4 44,4 45,4 46,4 46,5 46,6 46,7 45,7 44,7 43,7 42,7 42,8 43,8 44,8 45,8 45,9 44,9 43,9 42,9 42,8 41,8 41,7 41,6 42,6 "
     stroke="none"
     id="polygon1097" />
  <polygon
     fill="#bababa"
     points="42,7 43,7 44,7 45,7 46,7 46,6 46,5 46,4 47,4 47,5 47,6 47,7 47,8 46,8 46,9 46,10 45,10 44,10 43,10 42,10 42,9 41,9 41,8 42,8 "
     stroke="none"
     id="polygon1099" />
  <polygon
     fill="#ffffff"
     points="44,8 45,8 45,9 44,9 43,9 42,9 42,8 43,8 "
     stroke="none"
     id="polygon1101" />
  <polygon
     fill="#bababa"
     points="45,5 45,6 44,6 43,6 43,5 44,5 "
     stroke="none"
     id="polygon1103" />
  <polygon
     fill="#ffffff"
     points="49,5 50,5 50,4 51,4 52,4 53,4 53,5 53,6 53,7 52,7 51,7 50,7 49,7 49,8 50,8 51,8 52,8 52,9 51,9 50,9 49,9 49,8 48,8 48,7 48,6 49,6 "
     stroke="none"
     id="polygon1105" />
  <polygon
     fill="#bababa"
     points="49,7 50,7 51,7 52,7 53,7 53,6 53,5 53,4 54,4 54,5 54,6 54,7 54,8 53,8 53,9 53,10 52,10 51,10 50,10 49,10 49,9 48,9 48,8 49,8 "
     stroke="none"
     id="polygon1107" />
  <polygon
     fill="#ffffff"
     points="51,8 52,8 52,9 51,9 50,9 49,9 49,8 50,8 "
     stroke="none"
     id="polygon1109" />
  <polygon
     fill="#bababa"
     points="52,5 52,6 51,6 50,6 50,5 51,5 "
     stroke="none"
     id="polygon1111" />
  <polygon
     fill="#ffffff"
     points="60,3 60,2 60,1 61,1 61,0 62,0 62,1 61,1 61,2 61,3 61,4 62,4 63,4 63,5 62,5 61,5 61,6 61,7 61,8 62,8 62,9 61,9 61,8 60,8 60,7 60,6 60,5 59,5 59,4 60,4 "
     stroke="none"
     id="polygon1113" />
  <polygon
     fill="#bababa"
     points="60,6 59,6 59,5 60,5 "
     stroke="none"
     id="polygon1115" />
  <polygon
     fill="#bababa"
     points="61,7 61,6 61,5 62,5 63,5 63,4 64,4 64,5 64,6 63,6 62,6 62,7 62,8 63,8 63,9 63,10 62,10 61,10 61,9 60,9 60,8 61,8 "
     stroke="none"
     id="polygon1117" />
  <polygon
     fill="#bababa"
     points="62,0 63,0 63,1 63,2 62,2 62,3 62,4 61,4 61,3 61,2 61,1 62,1 "
     stroke="none"
     id="polygon1119" />
  <polygon
     fill="#ffffff"
     points="62,9 61,9 61,8 62,8 "
     stroke="none"
     id="polygon1121" />
  <path
     id="polygon1123"
     d="m 67,4 v 1 h -1 v 1 h -1 v 1 1 h 1 v 1 h 1 1 V 8 H 67 V 7 6 h 1 v 1 1 h 1 V 7 6 h 1 V 5 4 h -1 -1 z m 2,4 v 1 h 1 V 8 Z"
     style="fill:#ffffff;fill-opacity:1" />
  <path
     id="polygon1125"
     d="M 70,4 V 5 6 H 69 V 5 h -1 -1 v 1 h 1 V 7 8 H 67 V 7 6 h -1 v 1 1 h -1 v 1 h 1 v 1 h 1 1 1 1 1 V 9 8 H 70 V 7 h 1 V 6 5 4 Z"
     style="fill:#bababa;fill-opacity:1" />
  <polygon
     fill="#ffffff"
     points="68,8 68,7 68,6 69,6 69,7 69,8 70,8 70,9 69,9 69,8 68,8 68,9 67,9 66,9 66,8 67,8 "
     stroke="none"
     id="polygon1127" />
  <path
     id="polygon1131"
     d="m 74,0 v 1 h 1 V 0 Z m 0,1 h -1 v 1 1 1 1 1 1 1 h 1 v 1 h 1 1 1 V 8 H 76 75 V 7 6 h 1 1 V 5 H 76 V 4 H 75 74 V 3 2 Z m 3,5 v 1 1 h 1 V 7 6 Z"
     style="fill:#ffffff;fill-opacity:1" />
  <path
     id="polygon1133"
     style="fill:#bababa;fill-opacity:1"
     d="m 76,4 v 1 h -1 -1 v 1 1 1 h -1 v 1 h 1 v 1 h 1 1 1 1 V 9 h 1 V 8 7 6 H 78 V 5 H 77 V 4 Z m -1,2 h 1 1 V 7 8 H 76 75 V 7 Z" />
  <polygon
     fill="#bababa"
     points="75,0 76,0 76,1 76,2 75,2 75,3 75,4 74,4 74,3 74,2 74,1 75,1 "
     stroke="none"
     id="polygon1135" />
  <polygon
     fill="#ffffff"
     points="76,8 77,8 77,7 77,6 76,6 76,5 77,5 77,6 78,6 78,7 78,8 77,8 77,9 76,9 75,9 74,9 74,8 75,8 "
     stroke="none"
     id="polygon1137" />
  <polygon
     fill="#ffffff"
     points="81,0 82,0 82,1 81,1 81,2 81,3 81,4 81,5 81,6 81,7 82,7 82,8 82,9 81,9 81,8 81,7 80,7 80,6 80,5 80,4 80,3 80,2 80,1 81,1 "
     stroke="none"
     id="polygon1141" />
  <polygon
     fill="#bababa"
     points="81,6 81,5 81,4 81,3 81,2 81,1 82,1 82,0 83,0 83,1 83,2 82,2 82,3 82,4 82,5 82,6 82,7 83,7 83,8 83,9 83,10 82,10 81,10 81,9 82,9 82,8 82,7 81,7 81,8 80,8 80,7 81,7 "
     stroke="none"
     id="polygon1143" />
  <polygon
     fill="#ffffff"
     points="85,5 86,5 86,4 87,4 88,4 89,4 89,5 89,6 89,7 88,7 87,7 86,7 85,7 85,8 86,8 87,8 88,8 88,9 87,9 86,9 85,9 85,8 84,8 84,7 84,6 85,6 "
     stroke="none"
     id="polygon1145" />
  <polygon
     fill="#bababa"
     points="85,7 86,7 87,7 88,7 89,7 89,6 89,5 89,4 90,4 90,5 90,6 90,7 90,8 89,8 89,9 89,10 88,10 87,10 86,10 85,10 85,9 84,9 84,8 85,8 "
     stroke="none"
     id="polygon1147" />
  <polygon
     fill="#ffffff"
     points="87,8 88,8 88,9 87,9 86,9 85,9 85,8 86,8 "
     stroke="none"
     id="polygon1149" />
  <polygon
     fill="#bababa"
     points="88,5 88,6 87,6 86,6 86,5 87,5 "
     stroke="none"
     id="polygon1151" />
</svg>
