<?xml version="1.0" encoding="UTF-8" standalone="no"?>
<svg
   xmlns:dc="http://purl.org/dc/elements/1.1/"
   xmlns:cc="http://creativecommons.org/ns#"
   xmlns:rdf="http://www.w3.org/1999/02/22-rdf-syntax-ns#"
   xmlns:svg="http://www.w3.org/2000/svg"
   xmlns="http://www.w3.org/2000/svg"
   xmlns:sodipodi="http://sodipodi.sourceforge.net/DTD/sodipodi-0.dtd"
   xmlns:inkscape="http://www.inkscape.org/namespaces/inkscape"
   version="1.1"
   id="Layer_1"
   x="0px"
   y="0px"
   width="566.98041"
   height="421.09476"
   viewBox="0 0 728.29952 540.90602"
   xml:space="preserve"
   sodipodi:docname="Java_programming_language_logo.svg"
   inkscape:version="1.0.2 (e86c870879, 2021-01-15, custom)"><metadata
   id="metadata957"><rdf:RDF><cc:Work
       rdf:about=""><dc:format>image/svg+xml</dc:format><dc:type
         rdf:resource="http://purl.org/dc/dcmitype/StillImage" /></cc:Work></rdf:RDF></metadata><defs
   id="defs955"><rect
     x="524.11096"
     y="382.431"
     width="182.0724"
     height="81.083611"
     id="rect967" /><rect
     x="110.40425"
     y="404.64465"
     width="498.01962"
     height="223.12462"
     id="rect961" /></defs><sodipodi:namedview
   pagecolor="#ffffff"
   bordercolor="#666666"
   borderopacity="1"
   objecttolerance="10"
   gridtolerance="10"
   guidetolerance="10"
   inkscape:pageopacity="0"
   inkscape:pageshadow="2"
   inkscape:window-width="1916"
   inkscape:window-height="1041"
   id="namedview953"
   showgrid="false"
   inkscape:zoom="1.0065992"
   inkscape:cx="151.72449"
   inkscape:cy="105.16591"
   inkscape:window-x="0"
   inkscape:window-y="18"
   inkscape:window-maximized="1"
   inkscape:current-layer="Layer_1" />

<path
   style="fill:#5382a1"
   d="m 278.57698,426.546 h -2.038 v -1.14 h 5.486 v 1.14 h -2.024 v 5.688 h -1.424 z m 10.942,0.297 h -0.032 l -2.019,5.392 h -0.924 l -2.006,-5.392 h -0.025 v 5.392 h -1.342 v -6.828 h 1.975 l 1.86,4.835 1.854,-4.835 h 1.968 v 6.828 h -1.31 v -5.392 z"
   id="path926" />

<path
   style="fill:#5382a1"
   d="m 301.67774,286.925 c 0,0 -14.178,8.245 10.09,11.035 29.4,3.354 44.426,2.873 76.825,-3.259 0,0 8.518,5.341 20.414,9.967 -72.63,31.128 -164.376,-1.803 -107.329,-17.743"
   id="path928" />

<path
   style="fill:#5382a1"
   d="m 292.80274,246.305 c 0,0 -15.902,11.771 8.384,14.283 31.406,3.24 56.208,3.505 99.125,-4.759 0,0 5.936,6.018 15.27,9.309 -87.814,25.678 -185.623,2.025 -122.779,-18.833"
   id="path930" />

<path
   style="fill:#f8981d"
   d="m 367.62174,177.4 c 17.896,20.604 -4.702,39.145 -4.702,39.145 0,0 45.441,-23.458 24.572,-52.833 -19.491,-27.394 -34.438,-41.005 46.479,-87.934 0,0 -127.013,31.722 -66.349,101.622"
   id="path932" />

<path
   style="fill:#5382a1"
   d="m 463.68074,316.97 c 0,0 10.492,8.645 -11.555,15.333 -41.923,12.7 -174.488,16.535 -211.314,0.506 -13.238,-5.759 11.587,-13.751 19.396,-15.428 8.144,-1.766 12.798,-1.437 12.798,-1.437 -14.722,-10.371 -95.157,20.364 -40.857,29.166 148.084,24.015 269.943,-10.814 231.532,-28.14"
   id="path934" />

<path
   style="fill:#5382a1"
   d="m 308.49574,204.218 c 0,0 -67.431,16.016 -23.879,21.832 18.389,2.462 55.047,1.905 89.193,-0.956 27.906,-2.354 55.927,-7.359 55.927,-7.359 0,0 -9.84,4.214 -16.959,9.075 -68.475,18.009 -200.756,9.631 -162.674,-8.79 32.206,-15.568 58.392,-13.802 58.392,-13.802"
   id="path936" />

<path
   style="fill:#5382a1"
   d="m 429.45874,271.832 c 69.608,-36.171 37.424,-70.931 14.96,-66.248 -5.506,1.146 -7.961,2.139 -7.961,2.139 0,0 2.044,-3.202 5.948,-4.588 44.441,-15.624 78.619,46.081 -14.346,70.52 0,0.001 1.077,-0.962 1.399,-1.823"
   id="path938" />

<path
   style="fill:#f8981d"
   d="m 387.49174,0 c 0,0 38.55,38.563 -36.563,97.862 -60.233,47.568 -13.735,74.69 -0.025,105.678 -35.159,-31.722 -60.961,-59.647 -43.651,-85.637 25.407,-38.151 95.793,-56.648 80.239,-117.903"
   id="path940" />

<path
   style="fill:#5382a1"
   d="m 315.33574,369.847 c 66.815,4.277 169.417,-2.373 171.847,-33.988 0,0 -4.671,11.985 -55.219,21.503 -57.028,10.732 -127.364,9.479 -169.081,2.601 10e-4,-0.001 8.54,7.068 52.453,9.884"
   id="path942" />

<path
   style="fill:#5382a1"
   d="m 98.86201,490.649 c -6.303,5.467 -12.96,8.536 -18.934,8.536 -8.527,0 -13.134,-5.113 -13.134,-13.314 0,-8.871 4.936,-15.357 24.739,-15.357 h 7.328 v 20.135 m 17.393,19.623 V 449.53 c 0,-15.517 -8.85,-25.756 -30.188,-25.756 -12.457,0 -23.369,3.076 -32.238,6.999 l 2.56,10.752 c 6.983,-2.563 16.022,-4.949 24.894,-4.949 12.292,0 17.58,4.949 17.58,15.181 v 7.677 h -6.135 c -29.865,0 -43.337,11.593 -43.337,28.994 0,15.017 8.878,23.553 25.594,23.553 10.745,0 18.766,-4.436 26.264,-10.928 l 1.361,9.22 h 13.645 z"
   id="path944" />

<path
   style="fill:#5382a1"
   d="m 174.298,510.272 h -21.692 l -26.10599,-84.96 H 145.443 l 16.199,52.2 3.601,15.699 c 8.195,-22.698 13.991,-45.726 16.89,-67.899 h 18.427 c -4.937,27.977 -13.821,58.685 -26.262,84.96"
   id="path946" />

<path
   style="fill:#5382a1"
   d="m 257.51099,490.649 c -6.315,5.467 -12.984,8.536 -18.958,8.536 -8.512,0 -13.131,-5.113 -13.131,-13.314 0,-8.871 4.948,-15.357 24.749,-15.357 h 7.34 v 20.135 m 17.38999,19.623 V 449.53 c 0,-15.517 -8.87199,-25.756 -30.18499,-25.756 -12.466,0 -23.38199,3.076 -32.24699,6.999 l 2.556,10.752 c 6.98599,-2.563 16.04199,-4.949 24.90699,-4.949 12.283,0 17.579,4.949 17.579,15.181 v 7.677 h -6.145 c -29.87399,0 -43.33999,11.593 -43.33999,28.994 0,15.017 8.871,23.553 25.58399,23.553 10.751,0 18.769,-4.436 26.28,-10.928 l 1.366,9.22 h 13.64499 z"
   id="path948" />

<path
   style="fill:#5382a1"
   d="m 30.32,524.7 c -4.95799,7.239 -12.966,12.966 -21.733,16.206 L 0,530.801 c 6.673,-3.424 12.396,-8.954 15.055,-14.105 2.3,-4.581 3.252,-10.485 3.252,-24.604 v -96.995 h 18.47801 v 95.666 c -10e-4,18.876 -1.51,26.501 -6.46501,33.937"
   id="path950" />

<text
   xml:space="preserve"
   id="text959"
   style="font-style:normal;font-weight:normal;font-size:51.3809px;line-height:1.25;font-family:sans-serif;letter-spacing:0px;word-spacing:0px;white-space:pre;shape-inside:url(#rect961);fill:#784421;fill-opacity:1;stroke:none;"
   transform="translate(203.49779,-22.803798)"><tspan
     x="110.4043"
     y="534.12466"><tspan
       style="font-style:italic;font-variant:normal;font-weight:300;font-stretch:normal;font-size:154.143px;font-family:'URW Bookman';-inkscape-font-specification:'URW Bookman Light Italic';fill:#784421;fill-opacity:1">Table</tspan></tspan></text><text
   xml:space="preserve"
   id="text965"
   style="font-style:normal;font-weight:normal;font-size:23.9778px;line-height:1.25;font-family:sans-serif;letter-spacing:0px;word-spacing:0px;white-space:pre;shape-inside:url(#rect967);fill:#784421;fill-opacity:1;stroke:none;"
   transform="translate(197.71418,28.619899)"><tspan
     x="524.11133"
     y="403.64637"><tspan
       style="font-style:normal;font-variant:normal;font-weight:bold;font-stretch:normal;font-size:10.2762px;font-family:Cantarell;-inkscape-font-specification:'Cantarell Bold';fill:#784421;fill-opacity:1">R</tspan></tspan></text></svg>
